<mxfile host="app.diagrams.net" agent="Mozilla/5.0 (Windows NT 10.0; Win64; x64) AppleWebKit/537.36 (KHTML, like Gecko) Chrome/135.0.0.0 Safari/537.36" version="26.2.14">
  <diagram name="Página-1" id="8IQbDquWTTxxeq2xW0NO">
    <mxGraphModel dx="2050" dy="2840" grid="1" gridSize="10" guides="1" tooltips="1" connect="1" arrows="1" fold="1" page="1" pageScale="1" pageWidth="827" pageHeight="1169" math="0" shadow="0">
      <root>
        <mxCell id="0" />
        <mxCell id="1" parent="0" />
        <mxCell id="5mpojZy3bhpFWDZei2qy-2" value="Sistema AAVV" style="shape=umlLifeline;perimeter=lifelinePerimeter;whiteSpace=wrap;html=1;container=1;dropTarget=0;collapsible=0;recursiveResize=0;outlineConnect=0;portConstraint=eastwest;newEdgeStyle={&quot;curved&quot;:0,&quot;rounded&quot;:0};" vertex="1" parent="1">
          <mxGeometry x="434" y="175" width="100" height="2570" as="geometry" />
        </mxCell>
        <mxCell id="5mpojZy3bhpFWDZei2qy-70" value="" style="shape=umlDestroy;whiteSpace=wrap;html=1;strokeWidth=3;targetShapes=umlLifeline;" vertex="1" parent="5mpojZy3bhpFWDZei2qy-2">
          <mxGeometry x="35" y="2540" width="30" height="30" as="geometry" />
        </mxCell>
        <mxCell id="5mpojZy3bhpFWDZei2qy-3" value="Cliente" style="shape=umlLifeline;perimeter=lifelinePerimeter;whiteSpace=wrap;html=1;container=1;dropTarget=0;collapsible=0;recursiveResize=0;outlineConnect=0;portConstraint=eastwest;newEdgeStyle={&quot;curved&quot;:0,&quot;rounded&quot;:0};" vertex="1" parent="1">
          <mxGeometry x="160" y="175" width="100" height="2570" as="geometry" />
        </mxCell>
        <mxCell id="5mpojZy3bhpFWDZei2qy-66" value="" style="shape=umlDestroy;whiteSpace=wrap;html=1;strokeWidth=3;targetShapes=umlLifeline;" vertex="1" parent="5mpojZy3bhpFWDZei2qy-3">
          <mxGeometry x="35" y="2540" width="30" height="30" as="geometry" />
        </mxCell>
        <mxCell id="5mpojZy3bhpFWDZei2qy-4" value="SistemaSeguroExterno" style="shape=umlLifeline;perimeter=lifelinePerimeter;whiteSpace=wrap;html=1;container=1;dropTarget=0;collapsible=0;recursiveResize=0;outlineConnect=0;portConstraint=eastwest;newEdgeStyle={&quot;curved&quot;:0,&quot;rounded&quot;:0};" vertex="1" parent="1">
          <mxGeometry x="1120" y="175" width="150" height="2570" as="geometry" />
        </mxCell>
        <mxCell id="5mpojZy3bhpFWDZei2qy-67" value="" style="shape=umlDestroy;whiteSpace=wrap;html=1;strokeWidth=3;targetShapes=umlLifeline;" vertex="1" parent="5mpojZy3bhpFWDZei2qy-4">
          <mxGeometry x="60" y="2540" width="30" height="30" as="geometry" />
        </mxCell>
        <mxCell id="5mpojZy3bhpFWDZei2qy-5" value="BaseDeDatos" style="shape=umlLifeline;perimeter=lifelinePerimeter;whiteSpace=wrap;html=1;container=1;dropTarget=0;collapsible=0;recursiveResize=0;outlineConnect=0;portConstraint=eastwest;newEdgeStyle={&quot;curved&quot;:0,&quot;rounded&quot;:0};" vertex="1" parent="1">
          <mxGeometry x="970" y="175" width="128" height="2570" as="geometry" />
        </mxCell>
        <mxCell id="5mpojZy3bhpFWDZei2qy-68" value="" style="shape=umlDestroy;whiteSpace=wrap;html=1;strokeWidth=3;targetShapes=umlLifeline;" vertex="1" parent="5mpojZy3bhpFWDZei2qy-5">
          <mxGeometry x="49" y="2540" width="30" height="30" as="geometry" />
        </mxCell>
        <mxCell id="5mpojZy3bhpFWDZei2qy-6" value="Carrito" style="shape=umlLifeline;perimeter=lifelinePerimeter;whiteSpace=wrap;html=1;container=1;dropTarget=0;collapsible=0;recursiveResize=0;outlineConnect=0;portConstraint=eastwest;newEdgeStyle={&quot;curved&quot;:0,&quot;rounded&quot;:0};" vertex="1" parent="1">
          <mxGeometry x="690" y="170" width="60" height="2575" as="geometry" />
        </mxCell>
        <mxCell id="5mpojZy3bhpFWDZei2qy-69" value="" style="shape=umlDestroy;whiteSpace=wrap;html=1;strokeWidth=3;targetShapes=umlLifeline;" vertex="1" parent="5mpojZy3bhpFWDZei2qy-6">
          <mxGeometry x="15" y="2545" width="30" height="30" as="geometry" />
        </mxCell>
        <mxCell id="5mpojZy3bhpFWDZei2qy-7" value="PasarelaPago" style="shape=umlLifeline;perimeter=lifelinePerimeter;whiteSpace=wrap;html=1;container=1;dropTarget=0;collapsible=0;recursiveResize=0;outlineConnect=0;portConstraint=eastwest;newEdgeStyle={&quot;curved&quot;:0,&quot;rounded&quot;:0};" vertex="1" parent="1">
          <mxGeometry x="1290" y="175" width="100" height="2570" as="geometry" />
        </mxCell>
        <mxCell id="5mpojZy3bhpFWDZei2qy-71" value="" style="shape=umlDestroy;whiteSpace=wrap;html=1;strokeWidth=3;targetShapes=umlLifeline;" vertex="1" parent="5mpojZy3bhpFWDZei2qy-7">
          <mxGeometry x="35" y="2540" width="30" height="30" as="geometry" />
        </mxCell>
        <mxCell id="5mpojZy3bhpFWDZei2qy-8" value="Expediente" style="shape=umlLifeline;perimeter=lifelinePerimeter;whiteSpace=wrap;html=1;container=1;dropTarget=0;collapsible=0;recursiveResize=0;outlineConnect=0;portConstraint=eastwest;newEdgeStyle={&quot;curved&quot;:0,&quot;rounded&quot;:0};" vertex="1" parent="1">
          <mxGeometry x="1420" y="175" width="100" height="2570" as="geometry" />
        </mxCell>
        <mxCell id="5mpojZy3bhpFWDZei2qy-72" value="" style="shape=umlDestroy;whiteSpace=wrap;html=1;strokeWidth=3;targetShapes=umlLifeline;" vertex="1" parent="5mpojZy3bhpFWDZei2qy-8">
          <mxGeometry x="35" y="2540" width="30" height="30" as="geometry" />
        </mxCell>
        <mxCell id="5mpojZy3bhpFWDZei2qy-9" value="Login(Si no esta registrado)" style="html=1;verticalAlign=bottom;endArrow=block;curved=0;rounded=0;" edge="1" parent="1">
          <mxGeometry x="-0.2664" width="80" relative="1" as="geometry">
            <mxPoint x="209.5" y="255" as="sourcePoint" />
            <mxPoint x="483.5" y="255" as="targetPoint" />
            <mxPoint as="offset" />
          </mxGeometry>
        </mxCell>
        <mxCell id="5mpojZy3bhpFWDZei2qy-10" value="Verificar credenciales" style="html=1;verticalAlign=bottom;endArrow=block;curved=0;rounded=0;exitX=0.526;exitY=0.194;exitDx=0;exitDy=0;exitPerimeter=0;" edge="1" parent="1">
          <mxGeometry x="-0.6494" width="80" relative="1" as="geometry">
            <mxPoint x="487.10000000000014" y="294.9999999999999" as="sourcePoint" />
            <mxPoint x="1033.5000000000002" y="295" as="targetPoint" />
            <mxPoint as="offset" />
          </mxGeometry>
        </mxCell>
        <mxCell id="5mpojZy3bhpFWDZei2qy-11" value="Datos cliente" style="endArrow=open;endSize=12;dashed=1;html=1;rounded=0;" edge="1" parent="1">
          <mxGeometry x="0.7114" y="-10" width="160" relative="1" as="geometry">
            <mxPoint x="1033.5000000000002" y="335" as="sourcePoint" />
            <mxPoint x="480.95000000000005" y="335.00000000000006" as="targetPoint" />
            <mxPoint as="offset" />
          </mxGeometry>
        </mxCell>
        <mxCell id="5mpojZy3bhpFWDZei2qy-13" value="Confirmación login" style="endArrow=open;endSize=12;dashed=1;html=1;rounded=0;" edge="1" parent="1">
          <mxGeometry x="0.416" y="-10" width="160" relative="1" as="geometry">
            <mxPoint x="483.5" y="375" as="sourcePoint" />
            <mxPoint x="210.20000000000005" y="375" as="targetPoint" />
            <mxPoint as="offset" />
          </mxGeometry>
        </mxCell>
        <mxCell id="5mpojZy3bhpFWDZei2qy-14" value="Consultar productos turísitcos" style="html=1;verticalAlign=bottom;endArrow=block;curved=0;rounded=0;" edge="1" parent="1">
          <mxGeometry x="-0.2673" width="80" relative="1" as="geometry">
            <mxPoint x="209.70000000000005" y="415" as="sourcePoint" />
            <mxPoint x="483.5" y="415" as="targetPoint" />
            <mxPoint as="offset" />
          </mxGeometry>
        </mxCell>
        <mxCell id="5mpojZy3bhpFWDZei2qy-15" value="Obtener productos" style="html=1;verticalAlign=bottom;endArrow=block;curved=0;rounded=0;" edge="1" parent="1">
          <mxGeometry x="-0.6372" width="80" relative="1" as="geometry">
            <mxPoint x="483.70000000000005" y="455" as="sourcePoint" />
            <mxPoint x="1033.5000000000002" y="455" as="targetPoint" />
            <mxPoint as="offset" />
          </mxGeometry>
        </mxCell>
        <mxCell id="5mpojZy3bhpFWDZei2qy-16" value="LIsta productos disponibles" style="endArrow=open;endSize=12;dashed=1;html=1;rounded=0;" edge="1" parent="1">
          <mxGeometry x="0.5532" y="-10" width="160" relative="1" as="geometry">
            <mxPoint x="1033.5000000000002" y="495" as="sourcePoint" />
            <mxPoint x="483.70000000000005" y="495" as="targetPoint" />
            <mxPoint as="offset" />
          </mxGeometry>
        </mxCell>
        <mxCell id="5mpojZy3bhpFWDZei2qy-17" value="Mostrar catálogo" style="endArrow=open;endSize=12;dashed=1;html=1;rounded=0;" edge="1" parent="1">
          <mxGeometry x="0.4881" y="-10" width="160" relative="1" as="geometry">
            <mxPoint x="483.5" y="535" as="sourcePoint" />
            <mxPoint x="209.99666666666656" y="535" as="targetPoint" />
            <mxPoint as="offset" />
          </mxGeometry>
        </mxCell>
        <mxCell id="5mpojZy3bhpFWDZei2qy-21" value="Añadir producto al carrito(ej: vuelo + hotel)" style="html=1;verticalAlign=bottom;endArrow=block;curved=0;rounded=0;" edge="1" parent="1">
          <mxGeometry x="-0.0474" width="80" relative="1" as="geometry">
            <mxPoint x="209.5" y="695" as="sourcePoint" />
            <mxPoint x="483.5" y="694.9999999999999" as="targetPoint" />
            <mxPoint as="offset" />
          </mxGeometry>
        </mxCell>
        <mxCell id="5mpojZy3bhpFWDZei2qy-22" value="Agregar productos" style="html=1;verticalAlign=bottom;endArrow=block;curved=0;rounded=0;" edge="1" parent="1">
          <mxGeometry x="-0.0718" width="80" relative="1" as="geometry">
            <mxPoint x="483.83333333333326" y="735" as="sourcePoint" />
            <mxPoint x="719.5" y="735" as="targetPoint" />
            <mxPoint as="offset" />
          </mxGeometry>
        </mxCell>
        <mxCell id="5mpojZy3bhpFWDZei2qy-23" value="Bloquear pre-reserva (verificar disponibilidad)" style="html=1;verticalAlign=bottom;endArrow=block;curved=0;rounded=0;" edge="1" parent="1">
          <mxGeometry x="-0.0718" width="80" relative="1" as="geometry">
            <mxPoint x="719.3235294117646" y="775" as="sourcePoint" />
            <mxPoint x="1033.5" y="775" as="targetPoint" />
            <mxPoint as="offset" />
          </mxGeometry>
        </mxCell>
        <mxCell id="5mpojZy3bhpFWDZei2qy-24" value="Confirmación + precio actualizado" style="endArrow=open;endSize=12;dashed=1;html=1;rounded=0;" edge="1" parent="1">
          <mxGeometry x="0.2428" y="-10" width="160" relative="1" as="geometry">
            <mxPoint x="1033.5" y="815" as="sourcePoint" />
            <mxPoint x="719.3235294117646" y="815" as="targetPoint" />
            <mxPoint as="offset" />
          </mxGeometry>
        </mxCell>
        <mxCell id="5mpojZy3bhpFWDZei2qy-25" value="Producto añadido" style="endArrow=open;endSize=12;dashed=1;html=1;rounded=0;" edge="1" parent="1">
          <mxGeometry x="0.2428" y="-10" width="160" relative="1" as="geometry">
            <mxPoint x="719.5" y="855" as="sourcePoint" />
            <mxPoint x="483.83333333333326" y="855" as="targetPoint" />
            <mxPoint as="offset" />
          </mxGeometry>
        </mxCell>
        <mxCell id="5mpojZy3bhpFWDZei2qy-26" value="Carrito actualizado" style="endArrow=open;endSize=12;dashed=1;html=1;rounded=0;" edge="1" parent="1">
          <mxGeometry x="0.4141" y="-10" width="160" relative="1" as="geometry">
            <mxPoint x="483.5" y="895" as="sourcePoint" />
            <mxPoint x="209.83333333333337" y="895" as="targetPoint" />
            <mxPoint as="offset" />
          </mxGeometry>
        </mxCell>
        <mxCell id="5mpojZy3bhpFWDZei2qy-27" value="[Eliminar producto]" style="text;align=center;fontStyle=1;verticalAlign=middle;spacingLeft=3;spacingRight=3;strokeColor=none;rotatable=0;points=[[0,0.5],[1,0.5]];portConstraint=eastwest;html=1;" vertex="1" parent="1">
          <mxGeometry x="210" y="937" width="120" height="26" as="geometry" />
        </mxCell>
        <mxCell id="5mpojZy3bhpFWDZei2qy-28" value="[Añadir producto]" style="text;align=center;fontStyle=1;verticalAlign=middle;spacingLeft=3;spacingRight=3;strokeColor=none;rotatable=0;points=[[0,0.5],[1,0.5]];portConstraint=eastwest;html=1;" vertex="1" parent="1">
          <mxGeometry x="240" y="635" width="120" height="26" as="geometry" />
        </mxCell>
        <mxCell id="5mpojZy3bhpFWDZei2qy-29" value="Eliminar producto del carrito" style="html=1;verticalAlign=bottom;endArrow=block;curved=0;rounded=0;" edge="1" parent="1">
          <mxGeometry x="-0.2701" width="80" relative="1" as="geometry">
            <mxPoint x="210" y="1015" as="sourcePoint" />
            <mxPoint x="484" y="1014.9999999999999" as="targetPoint" />
            <mxPoint as="offset" />
          </mxGeometry>
        </mxCell>
        <mxCell id="5mpojZy3bhpFWDZei2qy-30" value="Remover producto" style="html=1;verticalAlign=bottom;endArrow=block;curved=0;rounded=0;" edge="1" parent="1">
          <mxGeometry x="-0.0474" width="80" relative="1" as="geometry">
            <mxPoint x="483.92857142857133" y="1055" as="sourcePoint" />
            <mxPoint x="719.5" y="1055.0000000000002" as="targetPoint" />
            <mxPoint as="offset" />
          </mxGeometry>
        </mxCell>
        <mxCell id="5mpojZy3bhpFWDZei2qy-31" value="Liberar pre-reserva" style="html=1;verticalAlign=bottom;endArrow=block;curved=0;rounded=0;" edge="1" parent="1">
          <mxGeometry x="-0.2969" width="80" relative="1" as="geometry">
            <mxPoint x="719.6666666666665" y="1094.9999999999998" as="sourcePoint" />
            <mxPoint x="1033.5000000000002" y="1094.9999999999998" as="targetPoint" />
            <mxPoint as="offset" />
          </mxGeometry>
        </mxCell>
        <mxCell id="5mpojZy3bhpFWDZei2qy-32" value="Confirmación liberación" style="endArrow=open;endSize=12;dashed=1;html=1;rounded=0;" edge="1" parent="1">
          <mxGeometry x="0.2428" y="-10" width="160" relative="1" as="geometry">
            <mxPoint x="1033.5" y="1135" as="sourcePoint" />
            <mxPoint x="719.3235294117646" y="1135" as="targetPoint" />
            <mxPoint as="offset" />
          </mxGeometry>
        </mxCell>
        <mxCell id="5mpojZy3bhpFWDZei2qy-33" value="Producto eliminado" style="endArrow=open;endSize=12;dashed=1;html=1;rounded=0;" edge="1" parent="1">
          <mxGeometry x="0.2428" y="-10" width="160" relative="1" as="geometry">
            <mxPoint x="719.5" y="1175" as="sourcePoint" />
            <mxPoint x="483.92857142857133" y="1175" as="targetPoint" />
            <mxPoint as="offset" />
          </mxGeometry>
        </mxCell>
        <mxCell id="5mpojZy3bhpFWDZei2qy-34" value="Carrito actualizado" style="endArrow=open;endSize=12;dashed=1;html=1;rounded=0;" edge="1" parent="1">
          <mxGeometry x="0.4141" y="-10" width="160" relative="1" as="geometry">
            <mxPoint x="483.5" y="1215" as="sourcePoint" />
            <mxPoint x="209.92857142857144" y="1215" as="targetPoint" />
            <mxPoint as="offset" />
          </mxGeometry>
        </mxCell>
        <mxCell id="5mpojZy3bhpFWDZei2qy-35" value="Confirmar carrito" style="html=1;verticalAlign=bottom;endArrow=block;curved=0;rounded=0;" edge="1" parent="1">
          <mxGeometry x="-0.2701" width="80" relative="1" as="geometry">
            <mxPoint x="209.25" y="1335" as="sourcePoint" />
            <mxPoint x="483.5" y="1335" as="targetPoint" />
            <mxPoint as="offset" />
          </mxGeometry>
        </mxCell>
        <mxCell id="5mpojZy3bhpFWDZei2qy-36" value="Generar resumen" style="html=1;verticalAlign=bottom;endArrow=block;curved=0;rounded=0;" edge="1" parent="1" target="5mpojZy3bhpFWDZei2qy-6">
          <mxGeometry x="-0.2701" width="80" relative="1" as="geometry">
            <mxPoint x="483.2500000000002" y="1375" as="sourcePoint" />
            <mxPoint x="669.4999999999998" y="1375" as="targetPoint" />
            <mxPoint as="offset" />
          </mxGeometry>
        </mxCell>
        <mxCell id="5mpojZy3bhpFWDZei2qy-37" value="Consolidar pre-reserva" style="html=1;verticalAlign=bottom;endArrow=block;curved=0;rounded=0;" edge="1" parent="1">
          <mxGeometry x="-0.2318" width="80" relative="1" as="geometry">
            <mxPoint x="719.3235294117646" y="1415" as="sourcePoint" />
            <mxPoint x="1033.5" y="1415" as="targetPoint" />
            <mxPoint x="1" as="offset" />
          </mxGeometry>
        </mxCell>
        <mxCell id="5mpojZy3bhpFWDZei2qy-38" value="Reservas bloqueadas" style="endArrow=open;endSize=12;dashed=1;html=1;rounded=0;" edge="1" parent="1" source="5mpojZy3bhpFWDZei2qy-5">
          <mxGeometry x="0.2428" y="-10" width="160" relative="1" as="geometry">
            <mxPoint x="960.5" y="1455" as="sourcePoint" />
            <mxPoint x="720" y="1455" as="targetPoint" />
            <mxPoint as="offset" />
          </mxGeometry>
        </mxCell>
        <mxCell id="5mpojZy3bhpFWDZei2qy-39" value="Datos para seguros (fechas, servicios)" style="endArrow=open;endSize=12;dashed=1;html=1;rounded=0;" edge="1" parent="1">
          <mxGeometry x="-0.0715" y="-10" width="160" relative="1" as="geometry">
            <mxPoint x="715.87" y="1495" as="sourcePoint" />
            <mxPoint x="480.00043478260875" y="1495" as="targetPoint" />
            <mxPoint as="offset" />
          </mxGeometry>
        </mxCell>
        <mxCell id="5mpojZy3bhpFWDZei2qy-41" value="Solicitar presupuestos (datos viaje)" style="html=1;verticalAlign=bottom;endArrow=block;curved=0;rounded=0;" edge="1" parent="1">
          <mxGeometry x="-0.7" width="80" relative="1" as="geometry">
            <mxPoint x="483.32352941176464" y="1535" as="sourcePoint" />
            <mxPoint x="1194.4999999999995" y="1535" as="targetPoint" />
            <mxPoint as="offset" />
          </mxGeometry>
        </mxCell>
        <mxCell id="5mpojZy3bhpFWDZei2qy-42" value="Opciones de pólizas" style="endArrow=open;endSize=12;dashed=1;html=1;rounded=0;" edge="1" parent="1">
          <mxGeometry x="0.7562" y="-10" width="160" relative="1" as="geometry">
            <mxPoint x="1194.4999999999995" y="1575" as="sourcePoint" />
            <mxPoint x="483.32352941176464" y="1575" as="targetPoint" />
            <mxPoint as="offset" />
          </mxGeometry>
        </mxCell>
        <mxCell id="5mpojZy3bhpFWDZei2qy-43" value="Mostrar seguros disponibles" style="endArrow=open;endSize=12;dashed=1;html=1;rounded=0;" edge="1" parent="1">
          <mxGeometry x="0.342" y="-10" width="160" relative="1" as="geometry">
            <mxPoint x="483.57000000000005" y="1615" as="sourcePoint" />
            <mxPoint x="209.99857142857144" y="1615" as="targetPoint" />
            <mxPoint as="offset" />
          </mxGeometry>
        </mxCell>
        <mxCell id="5mpojZy3bhpFWDZei2qy-44" value="Seleccionar póliza" style="html=1;verticalAlign=bottom;endArrow=block;curved=0;rounded=0;" edge="1" parent="1">
          <mxGeometry x="-0.2701" width="80" relative="1" as="geometry">
            <mxPoint x="210" y="1735" as="sourcePoint" />
            <mxPoint x="484.25" y="1735" as="targetPoint" />
            <mxPoint as="offset" />
          </mxGeometry>
        </mxCell>
        <mxCell id="5mpojZy3bhpFWDZei2qy-45" value="Confirmar seguro" style="html=1;verticalAlign=bottom;endArrow=block;curved=0;rounded=0;" edge="1" parent="1">
          <mxGeometry x="-0.8128" width="80" relative="1" as="geometry">
            <mxPoint x="483.4473684210525" y="1775" as="sourcePoint" />
            <mxPoint x="1194.5" y="1775" as="targetPoint" />
            <mxPoint as="offset" />
          </mxGeometry>
        </mxCell>
        <mxCell id="5mpojZy3bhpFWDZei2qy-46" value="Datos seguro (compañía,precio)" style="endArrow=open;endSize=12;dashed=1;html=1;rounded=0;" edge="1" parent="1">
          <mxGeometry x="0.7003" y="-10" width="160" relative="1" as="geometry">
            <mxPoint x="1194.5" y="1815" as="sourcePoint" />
            <mxPoint x="483.4473684210525" y="1815" as="targetPoint" />
            <mxPoint as="offset" />
          </mxGeometry>
        </mxCell>
        <mxCell id="5mpojZy3bhpFWDZei2qy-47" value="Marcar como CONFIRMADA" style="html=1;verticalAlign=bottom;endArrow=block;curved=0;rounded=0;" edge="1" parent="1">
          <mxGeometry x="-0.7841" width="80" relative="1" as="geometry">
            <mxPoint x="483.590909090909" y="2214.9950000000003" as="sourcePoint" />
            <mxPoint x="1469.5" y="2214.9950000000003" as="targetPoint" />
            <mxPoint as="offset" />
          </mxGeometry>
        </mxCell>
        <mxCell id="5mpojZy3bhpFWDZei2qy-48" value="Continuar sin seguro" style="html=1;verticalAlign=bottom;endArrow=block;curved=0;rounded=0;" edge="1" parent="1">
          <mxGeometry x="-0.4381" width="80" relative="1" as="geometry">
            <mxPoint x="483.4473684210525" y="1895" as="sourcePoint" />
            <mxPoint x="719.5000000000002" y="1895" as="targetPoint" />
            <mxPoint as="offset" />
          </mxGeometry>
        </mxCell>
        <mxCell id="5mpojZy3bhpFWDZei2qy-49" value="[Cliente acepta seguro]" style="text;align=center;fontStyle=1;verticalAlign=middle;spacingLeft=3;spacingRight=3;strokeColor=none;rotatable=0;points=[[0,0.5],[1,0.5]];portConstraint=eastwest;html=1;" vertex="1" parent="1">
          <mxGeometry x="250" y="1655" width="150" height="26" as="geometry" />
        </mxCell>
        <mxCell id="5mpojZy3bhpFWDZei2qy-50" value="[Cliente rechaza seguro]" style="text;align=center;fontStyle=1;verticalAlign=middle;spacingLeft=3;spacingRight=3;strokeColor=none;rotatable=0;points=[[0,0.5],[1,0.5]];portConstraint=eastwest;html=1;" vertex="1" parent="1">
          <mxGeometry x="210" y="1855" width="150" height="26" as="geometry" />
        </mxCell>
        <mxCell id="5mpojZy3bhpFWDZei2qy-51" value="Crear expedientes (reservas + seguro*)" style="html=1;verticalAlign=bottom;endArrow=block;curved=0;rounded=0;" edge="1" parent="1">
          <mxGeometry x="-0.7839" width="80" relative="1" as="geometry">
            <mxPoint x="483.4473684210525" y="1975" as="sourcePoint" />
            <mxPoint x="1469.5" y="1975" as="targetPoint" />
            <mxPoint x="-1" as="offset" />
          </mxGeometry>
        </mxCell>
        <mxCell id="5mpojZy3bhpFWDZei2qy-54" value="Registrar expediente" style="html=1;verticalAlign=bottom;endArrow=block;curved=0;rounded=0;" edge="1" parent="1">
          <mxGeometry width="80" relative="1" as="geometry">
            <mxPoint x="1469.5" y="2015" as="sourcePoint" />
            <mxPoint x="1033.447368421053" y="2015" as="targetPoint" />
          </mxGeometry>
        </mxCell>
        <mxCell id="5mpojZy3bhpFWDZei2qy-56" value="ID expediente generado" style="html=1;verticalAlign=bottom;endArrow=open;dashed=1;endSize=8;curved=0;rounded=0;" edge="1" parent="1">
          <mxGeometry relative="1" as="geometry">
            <mxPoint x="1033.447368421053" y="2055" as="sourcePoint" />
            <mxPoint x="1469.5" y="2055" as="targetPoint" />
          </mxGeometry>
        </mxCell>
        <mxCell id="5mpojZy3bhpFWDZei2qy-57" value="Procesar pago (total, datos cliente, tarjeta)" style="html=1;verticalAlign=bottom;endArrow=block;curved=0;rounded=0;" edge="1" parent="1">
          <mxGeometry x="-0.7277" width="80" relative="1" as="geometry">
            <mxPoint x="483.4473684210525" y="2095" as="sourcePoint" />
            <mxPoint x="1339.5" y="2095" as="targetPoint" />
            <mxPoint as="offset" />
          </mxGeometry>
        </mxCell>
        <mxCell id="5mpojZy3bhpFWDZei2qy-58" value="Confirmación pago" style="endArrow=open;endSize=12;dashed=1;html=1;rounded=0;" edge="1" parent="1">
          <mxGeometry x="0.7981" y="-10" width="160" relative="1" as="geometry">
            <mxPoint x="1339.5" y="2175" as="sourcePoint" />
            <mxPoint x="483.590909090909" y="2175" as="targetPoint" />
            <mxPoint as="offset" />
          </mxGeometry>
        </mxCell>
        <mxCell id="5mpojZy3bhpFWDZei2qy-59" value="Liberar reservas bloqueadas" style="html=1;verticalAlign=bottom;endArrow=block;curved=0;rounded=0;" edge="1" parent="1">
          <mxGeometry x="-0.613" width="80" relative="1" as="geometry">
            <mxPoint x="483.590909090909" y="2255" as="sourcePoint" />
            <mxPoint x="1033.5" y="2255" as="targetPoint" />
            <mxPoint as="offset" />
          </mxGeometry>
        </mxCell>
        <mxCell id="5mpojZy3bhpFWDZei2qy-60" value="Recibo (ID expediente)" style="endArrow=open;endSize=12;dashed=1;html=1;rounded=0;" edge="1" parent="1">
          <mxGeometry x="0.0478" y="-10" width="160" relative="1" as="geometry">
            <mxPoint x="483.5" y="2295" as="sourcePoint" />
            <mxPoint x="209.590909090909" y="2295" as="targetPoint" />
            <mxPoint as="offset" />
          </mxGeometry>
        </mxCell>
        <mxCell id="5mpojZy3bhpFWDZei2qy-61" value="Error pago" style="endArrow=open;endSize=12;dashed=1;html=1;rounded=0;" edge="1" parent="1">
          <mxGeometry x="0.8448" y="-10" width="160" relative="1" as="geometry">
            <mxPoint x="1339.5" y="2375" as="sourcePoint" />
            <mxPoint x="483.590909090909" y="2375" as="targetPoint" />
            <mxPoint as="offset" />
          </mxGeometry>
        </mxCell>
        <mxCell id="5mpojZy3bhpFWDZei2qy-62" value="Liberar pre-reservas" style="html=1;verticalAlign=bottom;endArrow=block;curved=0;rounded=0;" edge="1" parent="1">
          <mxGeometry x="-0.6857" width="80" relative="1" as="geometry">
            <mxPoint x="483.590909090909" y="2415" as="sourcePoint" />
            <mxPoint x="1033.5" y="2415" as="targetPoint" />
            <mxPoint as="offset" />
          </mxGeometry>
        </mxCell>
        <mxCell id="5mpojZy3bhpFWDZei2qy-64" value="Cancelar seguro (si existía)" style="html=1;verticalAlign=bottom;endArrow=block;curved=0;rounded=0;" edge="1" parent="1">
          <mxGeometry x="-0.7006" width="80" relative="1" as="geometry">
            <mxPoint x="483.590909090909" y="2455" as="sourcePoint" />
            <mxPoint x="1194.5" y="2455" as="targetPoint" />
            <mxPoint as="offset" />
          </mxGeometry>
        </mxCell>
        <mxCell id="5mpojZy3bhpFWDZei2qy-65" value="Notificar error" style="endArrow=open;endSize=12;dashed=1;html=1;rounded=0;" edge="1" parent="1">
          <mxGeometry x="0.0478" y="-10" width="160" relative="1" as="geometry">
            <mxPoint x="483.5" y="2495" as="sourcePoint" />
            <mxPoint x="209.590909090909" y="2495" as="targetPoint" />
            <mxPoint as="offset" />
          </mxGeometry>
        </mxCell>
        <mxCell id="5mpojZy3bhpFWDZei2qy-73" value="loop" style="shape=umlFrame;whiteSpace=wrap;html=1;pointerEvents=0;strokeWidth=2;" vertex="1" parent="1">
          <mxGeometry x="160" y="595" width="940" height="690" as="geometry" />
        </mxCell>
        <mxCell id="5mpojZy3bhpFWDZei2qy-74" value="[Añadir/Eliminar producto]" style="text;align=center;fontStyle=1;verticalAlign=middle;spacingLeft=3;spacingRight=3;strokeColor=none;rotatable=0;points=[[0,0.5],[1,0.5]];portConstraint=eastwest;html=1;" vertex="1" parent="1">
          <mxGeometry x="220" y="595" width="160" height="26" as="geometry" />
        </mxCell>
        <mxCell id="5mpojZy3bhpFWDZei2qy-75" value="alt" style="shape=umlFrame;whiteSpace=wrap;html=1;pointerEvents=0;strokeWidth=2;" vertex="1" parent="1">
          <mxGeometry x="180" y="635" width="900" height="620" as="geometry" />
        </mxCell>
        <mxCell id="5mpojZy3bhpFWDZei2qy-76" value="" style="endArrow=none;endFill=1;endSize=12;html=1;rounded=0;exitX=0.004;exitY=0.48;exitDx=0;exitDy=0;exitPerimeter=0;entryX=0.999;entryY=0.482;entryDx=0;entryDy=0;entryPerimeter=0;startFill=0;dashed=1;" edge="1" parent="1" source="5mpojZy3bhpFWDZei2qy-75" target="5mpojZy3bhpFWDZei2qy-75">
          <mxGeometry width="160" relative="1" as="geometry">
            <mxPoint x="450" y="785" as="sourcePoint" />
            <mxPoint x="610" y="785" as="targetPoint" />
          </mxGeometry>
        </mxCell>
        <mxCell id="5mpojZy3bhpFWDZei2qy-78" value="alt" style="shape=umlFrame;whiteSpace=wrap;html=1;pointerEvents=0;strokeWidth=2;" vertex="1" parent="1">
          <mxGeometry x="190" y="1655" width="1030" height="280" as="geometry" />
        </mxCell>
        <mxCell id="5mpojZy3bhpFWDZei2qy-82" value="" style="endArrow=none;endFill=1;endSize=12;html=1;rounded=0;exitX=0.004;exitY=0.48;exitDx=0;exitDy=0;exitPerimeter=0;entryX=1.002;entryY=0.719;entryDx=0;entryDy=0;entryPerimeter=0;startFill=0;dashed=1;" edge="1" parent="1" target="5mpojZy3bhpFWDZei2qy-78">
          <mxGeometry width="160" relative="1" as="geometry">
            <mxPoint x="194" y="1855" as="sourcePoint" />
            <mxPoint x="1089" y="1856" as="targetPoint" />
          </mxGeometry>
        </mxCell>
        <mxCell id="5mpojZy3bhpFWDZei2qy-84" value="alt" style="shape=umlFrame;whiteSpace=wrap;html=1;pointerEvents=0;strokeWidth=2;" vertex="1" parent="1">
          <mxGeometry x="190" y="2135" width="1310" height="390" as="geometry" />
        </mxCell>
        <mxCell id="5mpojZy3bhpFWDZei2qy-85" value="[Pago exitoso]" style="text;align=center;fontStyle=1;verticalAlign=middle;spacingLeft=3;spacingRight=3;strokeColor=none;rotatable=0;points=[[0,0.5],[1,0.5]];portConstraint=eastwest;html=1;" vertex="1" parent="1">
          <mxGeometry x="250" y="2135" width="100" height="26" as="geometry" />
        </mxCell>
        <mxCell id="5mpojZy3bhpFWDZei2qy-86" value="" style="endArrow=none;endFill=1;endSize=12;html=1;rounded=0;exitX=-0.002;exitY=0.411;exitDx=0;exitDy=0;exitPerimeter=0;entryX=0.998;entryY=0.411;entryDx=0;entryDy=0;entryPerimeter=0;startFill=0;dashed=1;" edge="1" parent="1">
          <mxGeometry width="160" relative="1" as="geometry">
            <mxPoint x="187.3800000000001" y="2335" as="sourcePoint" />
            <mxPoint x="1497.38" y="2335" as="targetPoint" />
          </mxGeometry>
        </mxCell>
        <mxCell id="5mpojZy3bhpFWDZei2qy-87" value="[Pago fallido]" style="text;align=center;fontStyle=1;verticalAlign=middle;spacingLeft=3;spacingRight=3;strokeColor=none;rotatable=0;points=[[0,0.5],[1,0.5]];portConstraint=eastwest;html=1;" vertex="1" parent="1">
          <mxGeometry x="210" y="2335" width="100" height="26" as="geometry" />
        </mxCell>
        <mxCell id="5mpojZy3bhpFWDZei2qy-88" value="&lt;pre style=&quot;font-family: Menlo, &amp;quot;Roboto Mono&amp;quot;, &amp;quot;Courier New&amp;quot;, Courier, monospace, Inter, sans-serif; overflow: auto; padding: 9.144px 13.716px; text-wrap-mode: wrap; word-break: break-all; font-size: 12.573px; text-align: start; margin-top: 0px !important; margin-bottom: 0px !important;&quot;&gt;El sistema de seguros es externo &lt;br/&gt;  y devuelve múltiples opciones &lt;br/&gt;  de pólizas ajustadas al viaje&lt;/pre&gt;" style="html=1;dropTarget=0;whiteSpace=wrap;" vertex="1" parent="1">
          <mxGeometry x="1280" y="385" width="280" height="90" as="geometry" />
        </mxCell>
        <mxCell id="5mpojZy3bhpFWDZei2qy-89" value="" style="shape=module;jettyWidth=8;jettyHeight=4;" vertex="1" parent="5mpojZy3bhpFWDZei2qy-88">
          <mxGeometry x="1" width="20" height="20" relative="1" as="geometry">
            <mxPoint x="-27" y="7" as="offset" />
          </mxGeometry>
        </mxCell>
        <mxCell id="5mpojZy3bhpFWDZei2qy-90" value="&lt;pre style=&quot;font-family: Menlo, &amp;quot;Roboto Mono&amp;quot;, &amp;quot;Courier New&amp;quot;, Courier, monospace, Inter, sans-serif; overflow: auto; padding: 9.144px 13.716px; text-wrap-mode: wrap; word-break: break-all; font-size: 12.573px; text-align: start; margin-top: 0px !important; margin-bottom: 0px !important;&quot;&gt;&lt;pre style=&quot;font-family: Menlo, &amp;quot;Roboto Mono&amp;quot;, &amp;quot;Courier New&amp;quot;, Courier, monospace, Inter, sans-serif; overflow: auto; padding: 9.144px 13.716px; text-wrap-mode: wrap; word-break: break-all; font-size: 12.573px; margin-top: 0px !important; margin-bottom: 0px !important;&quot;&gt;La tarjeta no se almacena,&lt;br/&gt;  solo se transmite una vez&lt;br/&gt;  a la pasarela de pago&lt;/pre&gt;&lt;/pre&gt;" style="html=1;dropTarget=0;whiteSpace=wrap;" vertex="1" parent="1">
          <mxGeometry x="50" y="1415" width="270" height="90" as="geometry" />
        </mxCell>
        <mxCell id="5mpojZy3bhpFWDZei2qy-91" value="" style="shape=module;jettyWidth=8;jettyHeight=4;" vertex="1" parent="5mpojZy3bhpFWDZei2qy-90">
          <mxGeometry x="1" width="20" height="20" relative="1" as="geometry">
            <mxPoint x="-67" y="102" as="offset" />
          </mxGeometry>
        </mxCell>
      </root>
    </mxGraphModel>
  </diagram>
</mxfile>
